<svg width="153" height="45" viewBox="0 0 153 45" fill="none" xmlns="http://www.w3.org/2000/svg">
<g filter="url(#filter0_d_14702_609)">
<path d="M31.2188 0.388916V35.6889H23.6135V33.2889C21.9124 35.1889 19.5107 36.3889 16.1084 36.3889C9.5038 36.3889 4 30.5889 4 23.0889C4 15.5889 9.5038 9.78892 16.1084 9.78892C19.5107 9.78892 22.0124 10.9889 23.6135 12.8889V0.388916H31.2188ZM23.6135 23.0889C23.6135 19.2889 21.1118 16.8889 17.6094 16.8889C14.107 16.8889 11.6052 19.2889 11.6052 23.0889C11.6052 26.8889 14.107 29.2889 17.6094 29.2889C21.1118 29.1889 23.6135 26.8889 23.6135 23.0889Z" fill="black"/>
<path d="M47.7298 29.5888C49.8313 29.5888 51.5325 28.7888 52.5332 27.6888L58.6374 31.1888C56.1356 34.5888 52.4331 36.3888 47.6298 36.3888C39.0238 36.3888 33.6201 30.5888 33.6201 23.0888C33.6201 15.5888 39.0238 9.78882 47.0294 9.78882C54.4345 9.78882 59.8382 15.4888 59.8382 23.0888C59.8382 24.1888 59.7381 25.1888 59.538 26.0888H41.6256C42.6263 28.6888 44.9279 29.5888 47.7298 29.5888ZM52.333 20.4888C51.5325 17.5888 49.2309 16.4888 46.9293 16.4888C44.0273 16.4888 42.126 17.8888 41.4255 20.4888H52.333Z" fill="black"/>
<path d="M86.1563 10.489L76.8499 35.689H68.2439L58.9375 10.489H67.3433L72.647 26.489L77.9506 10.489C77.9506 10.489 86.1563 10.489 86.1563 10.489Z" fill="black"/>
<path d="M87.458 10.489H95.0633V35.689H87.458V10.489Z" fill="black"/>
<path d="M97.665 23.0888C97.665 15.5888 103.369 9.78882 111.074 9.78882C115.978 9.78882 120.281 12.3888 122.482 16.2888L115.878 20.0888C114.977 18.2888 113.176 17.2888 110.974 17.2888C107.672 17.2888 105.27 19.6888 105.27 23.0888C105.27 26.5888 107.672 28.8888 110.974 28.8888C113.176 28.8888 115.077 27.7888 115.878 26.0888L122.482 29.8888C120.381 33.7888 116.078 36.3888 111.074 36.3888C103.369 36.3888 97.665 30.5888 97.665 23.0888Z" fill="black"/>
<path d="M136.892 29.5888C138.993 29.5888 140.695 28.7888 141.695 27.6888L147.799 31.1888C145.298 34.5888 141.595 36.3888 136.792 36.3888C128.186 36.3888 122.782 30.5888 122.782 23.0888C122.782 15.5888 128.286 9.78882 136.191 9.78882C143.597 9.78882 149 15.4888 149 23.0888C149 24.1888 148.9 25.1888 148.7 26.0888H130.788C131.788 28.6888 134.09 29.5888 136.892 29.5888ZM141.595 20.4888C140.795 17.5888 138.493 16.4888 136.191 16.4888C133.289 16.4888 131.388 17.8888 130.688 20.4888H141.595Z" fill="black"/>
<path d="M87.458 0.388916V10.4889L95.0633 0.388916H87.458Z" fill="#510094"/>
</g>
<defs>
<filter id="filter0_d_14702_609" x="0" y="0.388916" width="153" height="44" filterUnits="userSpaceOnUse" color-interpolation-filters="sRGB">
<feFlood flood-opacity="0" result="BackgroundImageFix"/>
<feColorMatrix in="SourceAlpha" type="matrix" values="0 0 0 0 0 0 0 0 0 0 0 0 0 0 0 0 0 0 127 0" result="hardAlpha"/>
<feOffset dy="4"/>
<feGaussianBlur stdDeviation="2"/>
<feComposite in2="hardAlpha" operator="out"/>
<feColorMatrix type="matrix" values="0 0 0 0 0 0 0 0 0 0 0 0 0 0 0 0 0 0 0.25 0"/>
<feBlend mode="normal" in2="BackgroundImageFix" result="effect1_dropShadow_14702_609"/>
<feBlend mode="normal" in="SourceGraphic" in2="effect1_dropShadow_14702_609" result="shape"/>
</filter>
</defs>
</svg>
